<svg width="1280" height="720" viewBox="0 0 1280 720" fill="none" xmlns="http://www.w3.org/2000/svg">
  <rect width="1280" height="720" fill="#F5EBDD"/>
  <rect x="28" y="28" width="1224" height="664" rx="28" fill="#FFF9F0" stroke="#D8C9B5"/>
  <rect x="56" y="56" width="1168" height="96" rx="24" fill="#FFFDF9" stroke="#E5D8C8"/>
  <text x="84" y="92" fill="#B53A17" font-size="16" font-family="Arial, sans-serif" letter-spacing="4">AI NEWS OPEN</text>
  <text x="84" y="128" fill="#171717" font-size="44" font-family="Arial, sans-serif" font-weight="700">Domestic &amp; Global AI News Console</text>
  <rect x="916" y="76" width="264" height="44" rx="16" fill="#F7F0E5" stroke="#E5D8C8"/>
  <text x="940" y="104" fill="#7A6C5C" font-size="18" font-family="Arial, sans-serif">Admin Token</text>

  <rect x="56" y="176" width="1168" height="110" rx="24" fill="#FFFDF9" stroke="#E5D8C8"/>
  <rect x="84" y="204" width="146" height="54" rx="18" fill="#171717"/>
  <text x="114" y="238" fill="#FFF8EE" font-size="22" font-family="Arial, sans-serif" font-weight="700">1,248</text>
  <text x="110" y="258" fill="#A99986" font-size="13" font-family="Arial, sans-serif">ARTICLES</text>
  <rect x="250" y="204" width="146" height="54" rx="18" fill="#DB3D1B"/>
  <text x="286" y="238" fill="#FFF8EE" font-size="22" font-family="Arial, sans-serif" font-weight="700">382</text>
  <text x="276" y="258" fill="#F1C4B7" font-size="13" font-family="Arial, sans-serif">ENRICHED</text>
  <rect x="416" y="204" width="146" height="54" rx="18" fill="#B88C32"/>
  <text x="456" y="238" fill="#FFF8EE" font-size="22" font-family="Arial, sans-serif" font-weight="700">92</text>
  <text x="450" y="258" fill="#F4E4B9" font-size="13" font-family="Arial, sans-serif">DIGESTS</text>
  <rect x="582" y="204" width="182" height="54" rx="18" fill="#F7F0E5" stroke="#E5D8C8"/>
  <text x="610" y="238" fill="#171717" font-size="22" font-family="Arial, sans-serif" font-weight="700">gpt-5.4</text>
  <text x="634" y="258" fill="#8C7B66" font-size="13" font-family="Arial, sans-serif">LLM MODEL</text>

  <rect x="56" y="314" width="734" height="348" rx="24" fill="#FFFDF9" stroke="#E5D8C8"/>
  <text x="84" y="352" fill="#B53A17" font-size="14" font-family="Arial, sans-serif" letter-spacing="3">DIGEST</text>
  <text x="84" y="392" fill="#171717" font-size="34" font-family="Arial, sans-serif" font-weight="700">2026-04-07 All-AI Daily Digest</text>
  <text x="84" y="428" fill="#6F665B" font-size="18" font-family="Arial, sans-serif">A single dashboard for ingestion, extraction, translation, digest generation,</text>
  <text x="84" y="454" fill="#6F665B" font-size="18" font-family="Arial, sans-serif">publication history, and WeChat publishing status refresh.</text>
  <circle cx="98" cy="503" r="6" fill="#DB3D1B"/>
  <text x="118" y="509" fill="#171717" font-size="18" font-family="Arial, sans-serif">Domestic and international feed aggregation</text>
  <circle cx="98" cy="545" r="6" fill="#DB3D1B"/>
  <text x="118" y="551" fill="#171717" font-size="18" font-family="Arial, sans-serif">Chinese translation and digest generation with an OpenAI-compatible LLM</text>
  <circle cx="98" cy="587" r="6" fill="#DB3D1B"/>
  <text x="118" y="593" fill="#171717" font-size="18" font-family="Arial, sans-serif">Telegram, Feishu, static site, and WeChat publishing workflows</text>

  <rect x="818" y="314" width="406" height="162" rx="24" fill="#FFFDF9" stroke="#E5D8C8"/>
  <text x="846" y="352" fill="#B53A17" font-size="14" font-family="Arial, sans-serif" letter-spacing="3">PIPELINE</text>
  <rect x="846" y="378" width="116" height="40" rx="14" fill="#171717"/>
  <text x="879" y="404" fill="#FFF8EE" font-size="16" font-family="Arial, sans-serif">INGEST</text>
  <rect x="976" y="378" width="116" height="40" rx="14" fill="#DB3D1B"/>
  <text x="1006" y="404" fill="#FFF8EE" font-size="16" font-family="Arial, sans-serif">ENRICH</text>
  <rect x="1106" y="378" width="90" height="40" rx="14" fill="#B88C32"/>
  <text x="1128" y="404" fill="#FFF8EE" font-size="16" font-family="Arial, sans-serif">PUBLISH</text>
  <text x="846" y="444" fill="#6F665B" font-size="17" font-family="Arial, sans-serif">run-pipeline -> extract -> enrich -> digest -> export -> publish</text>

  <rect x="818" y="500" width="406" height="162" rx="24" fill="#FFFDF9" stroke="#E5D8C8"/>
  <text x="846" y="538" fill="#B53A17" font-size="14" font-family="Arial, sans-serif" letter-spacing="3">PUBLISH HISTORY</text>
  <rect x="846" y="560" width="148" height="34" rx="14" fill="#F7F0E5" stroke="#E5D8C8"/>
  <text x="880" y="583" fill="#171717" font-size="15" font-family="Arial, sans-serif">WECHAT</text>
  <rect x="1008" y="560" width="112" height="34" rx="14" fill="#F2E4B4"/>
  <text x="1035" y="583" fill="#7B5A14" font-size="15" font-family="Arial, sans-serif">PENDING</text>
  <text x="846" y="617" fill="#6F665B" font-size="17" font-family="Arial, sans-serif">Refresh publish status directly from the admin console.</text>
</svg>
